<svg width="19" height="17" viewBox="0 0 19 17" fill="none" xmlns="http://www.w3.org/2000/svg">
<path d="M18.8397 8.65772C18.8397 8.32352 18.7017 7.99022 18.4598 7.75499L12.0597 1.37134C11.789 1.09749 11.4939 0.975891 11.1881 0.975891C10.486 0.975891 9.99375 1.4703 9.99375 2.13559C9.99375 2.49108 10.1371 2.7809 10.3617 3.00236L12.5492 5.21029L16.0162 8.38833L16.4662 7.6423L12.9086 7.44077H1.39044C0.646618 7.44077 0.145996 7.93563 0.145996 8.65772C0.145996 9.37981 0.646618 9.87467 1.39044 9.87467H12.9086L16.4662 9.67314L16.0162 8.93688L12.5492 12.1052L10.3617 14.31C10.1371 14.5217 9.99375 14.8213 9.99375 15.1768C9.99375 15.842 10.486 16.3365 11.1881 16.3365C11.4939 16.3365 11.789 16.2082 12.0464 15.9543L18.4598 9.56045C18.7017 9.32522 18.8397 8.99192 18.8397 8.65772Z" fill="white"/>
</svg>
