<svg width="22" height="20" viewBox="0 0 22 20" fill="none" xmlns="http://www.w3.org/2000/svg">
<path d="M4.27637 19.2578H17.8848C20.1113 19.2578 21.3271 18.042 21.3271 15.8301V4.01371C21.3271 1.79691 20.1113 0.585968 17.8848 0.585968H4.27637C2.0498 0.585968 0.829102 1.79203 0.829102 4.01371V15.8301C0.829102 18.0469 2.0498 19.2578 4.27637 19.2578ZM4.46191 16.7383C3.72949 16.7383 3.34863 16.3867 3.34863 15.6152V6.92386C3.34863 6.15726 3.72949 5.8057 4.46191 5.8057H17.6895C18.4219 5.8057 18.8076 6.15726 18.8076 6.92386V15.6152C18.8076 16.3867 18.4219 16.7383 17.6895 16.7383H4.46191ZM9.24707 8.97464H9.82324C10.1797 8.97464 10.3018 8.86234 10.3018 8.50589V7.92972C10.3018 7.57328 10.1797 7.45609 9.82324 7.45609H9.24707C8.89062 7.45609 8.76367 7.57328 8.76367 7.92972V8.50589C8.76367 8.86234 8.89062 8.97464 9.24707 8.97464ZM12.3477 8.97464H12.9238C13.2803 8.97464 13.4121 8.86234 13.4121 8.50589V7.92972C13.4121 7.57328 13.2803 7.45609 12.9238 7.45609H12.3477C11.9912 7.45609 11.8643 7.57328 11.8643 7.92972V8.50589C11.8643 8.86234 11.9912 8.97464 12.3477 8.97464ZM15.4531 8.97464H16.0293C16.3857 8.97464 16.5127 8.86234 16.5127 8.50589V7.92972C16.5127 7.57328 16.3857 7.45609 16.0293 7.45609H15.4531C15.0967 7.45609 14.9746 7.57328 14.9746 7.92972V8.50589C14.9746 8.86234 15.0967 8.97464 15.4531 8.97464ZM6.14648 12.0264H6.71289C7.0791 12.0264 7.20117 11.9141 7.20117 11.5576V10.9814C7.20117 10.625 7.0791 10.5127 6.71289 10.5127H6.14648C5.78027 10.5127 5.6582 10.625 5.6582 10.9814V11.5576C5.6582 11.9141 5.78027 12.0264 6.14648 12.0264ZM9.24707 12.0264H9.82324C10.1797 12.0264 10.3018 11.9141 10.3018 11.5576V10.9814C10.3018 10.625 10.1797 10.5127 9.82324 10.5127H9.24707C8.89062 10.5127 8.76367 10.625 8.76367 10.9814V11.5576C8.76367 11.9141 8.89062 12.0264 9.24707 12.0264ZM12.3477 12.0264H12.9238C13.2803 12.0264 13.4121 11.9141 13.4121 11.5576V10.9814C13.4121 10.625 13.2803 10.5127 12.9238 10.5127H12.3477C11.9912 10.5127 11.8643 10.625 11.8643 10.9814V11.5576C11.8643 11.9141 11.9912 12.0264 12.3477 12.0264ZM15.4531 12.0264H16.0293C16.3857 12.0264 16.5127 11.9141 16.5127 11.5576V10.9814C16.5127 10.625 16.3857 10.5127 16.0293 10.5127H15.4531C15.0967 10.5127 14.9746 10.625 14.9746 10.9814V11.5576C14.9746 11.9141 15.0967 12.0264 15.4531 12.0264ZM6.14648 15.083H6.71289C7.0791 15.083 7.20117 14.9707 7.20117 14.6094V14.0381C7.20117 13.6768 7.0791 13.5693 6.71289 13.5693H6.14648C5.78027 13.5693 5.6582 13.6768 5.6582 14.0381V14.6094C5.6582 14.9707 5.78027 15.083 6.14648 15.083ZM9.24707 15.083H9.82324C10.1797 15.083 10.3018 14.9707 10.3018 14.6094V14.0381C10.3018 13.6768 10.1797 13.5693 9.82324 13.5693H9.24707C8.89062 13.5693 8.76367 13.6768 8.76367 14.0381V14.6094C8.76367 14.9707 8.89062 15.083 9.24707 15.083ZM12.3477 15.083H12.9238C13.2803 15.083 13.4121 14.9707 13.4121 14.6094V14.0381C13.4121 13.6768 13.2803 13.5693 12.9238 13.5693H12.3477C11.9912 13.5693 11.8643 13.6768 11.8643 14.0381V14.6094C11.8643 14.9707 11.9912 15.083 12.3477 15.083Z" fill="black" fill-opacity="0.85"/>
</svg>
