<svg width="58" height="59" viewBox="0 0 58 59" fill="none" xmlns="http://www.w3.org/2000/svg">
<path d="M28.9954 58.5C44.8986 58.5 58 45.3863 58 29.4999C58 13.5945 44.8795 0.5 28.9767 0.5C13.1013 0.5 0 13.5945 0 29.4999C0 45.3863 13.1203 58.5 28.9954 58.5ZM25.9081 43.3276C24.786 43.3276 23.8661 42.8234 23.0459 41.788L16.3592 33.7098C15.8007 33.0122 15.5416 32.3473 15.5416 31.593C15.5416 30.0497 16.7799 28.8087 18.314 28.8087C19.2529 28.8087 19.9618 29.1385 20.6922 30.0562L25.8323 36.4929L37.0411 18.5931C37.7019 17.5555 38.5398 17.0134 39.4924 17.0134C41.0076 17.0134 42.3861 18.0952 42.3861 19.6674C42.3861 20.3322 42.0689 21.0425 41.6379 21.7237L28.6769 41.7527C27.9957 42.7676 27.0214 43.3276 25.9081 43.3276Z" fill="#FF6B00"/>
</svg>
