<svg width="22" height="22" viewBox="0 0 22 22" fill="none" xmlns="http://www.w3.org/2000/svg">
<g clip-path="url(#clip0_46_22)">
<path d="M2.48926 20.7949C2.92383 20.7949 3.29004 20.6387 3.78808 20.3604L8.20703 17.9678L13.0654 20.6729C13.5537 20.9463 14.0615 21.0781 14.5645 21.0781C15.0625 21.0781 15.5654 20.9463 16.0293 20.6826L20.4922 18.1729C21.3174 17.7188 21.6689 17.0791 21.6689 16.1905V3.13871C21.6689 2.15238 21.0195 1.51761 20.0088 1.51761C19.5742 1.51761 19.2129 1.69827 18.7051 1.9766L14.1543 4.50101L9.30566 1.64944C8.83691 1.38577 8.33398 1.25394 7.82617 1.25394C7.35254 1.25394 6.8789 1.37601 6.46387 1.61526L2.00098 4.12015C1.18066 4.58402 0.829102 5.18461 0.829102 6.06839V19.1885C0.829102 20.1797 1.47852 20.7949 2.48926 20.7949ZM6.94726 15.9219L3.53418 17.8018C3.44629 17.8457 3.36816 17.875 3.30469 17.875C3.14844 17.875 3.06543 17.7481 3.06543 17.5625V6.76175C3.06543 6.41507 3.16797 6.25394 3.48047 6.07328L6.67871 4.24222C6.77637 4.18851 6.85449 4.14457 6.94726 4.09086V15.9219ZM9.25195 15.8047V4.37406C9.34961 4.42777 9.46191 4.49125 9.55957 4.54496L13.2461 6.71293V18.0313C13.1289 17.9678 13.0068 17.9043 12.8848 17.8408L9.25195 15.8047ZM15.5508 18.124V6.41507L18.9541 4.54984C19.0225 4.51078 19.0908 4.49125 19.1494 4.49125C19.3154 4.49125 19.4326 4.6182 19.4326 4.78421V15.4531C19.4326 15.7998 19.3203 15.9707 19.0176 16.1416L16 17.8701C15.8535 17.958 15.6973 18.0459 15.5508 18.124Z" fill="black" fill-opacity="0.85"/>
</g>
<defs>
<clipPath id="clip0_46_22">
<rect width="20.8398" height="20.1562" fill="white" transform="translate(0.829102 0.921906)"/>
</clipPath>
</defs>
</svg>
