<svg width="20" height="23" viewBox="0 0 20 23" fill="none" xmlns="http://www.w3.org/2000/svg">
<path d="M5.42727 4.36646H7.62649V2.63574C7.62649 2.2313 7.90618 1.96759 8.3621 1.96759H11.7867C12.2427 1.96759 12.5224 2.2313 12.5224 2.63574V4.36646H14.7149V2.5505C14.7149 0.942363 13.686 0 11.9248 0H8.21742C6.45617 0 5.42727 0.942363 5.42727 2.5505V4.36646ZM1.28076 5.89501H18.8747C19.418 5.89501 19.8401 5.48179 19.8401 4.93855C19.8401 4.40152 19.418 3.99496 18.8747 3.99496H1.28076C0.744178 3.99496 0.31543 4.40152 0.31543 4.93855C0.31543 5.48845 0.744178 5.89501 1.28076 5.89501ZM17.6029 5.69304H2.55928L3.18473 19.911C3.24287 21.3052 4.04982 22.0442 5.46216 22.0442H14.6933C16.1123 22.0442 16.9162 21.3052 16.9774 19.911L17.6029 5.69304ZM6.92484 18.9283C6.51117 18.9283 6.22045 18.6571 6.21068 18.2403L5.91105 8.02481C5.90129 7.61159 6.17959 7.33064 6.62255 7.33064C7.04199 7.33064 7.33937 7.60493 7.34913 8.01505L7.639 18.231C7.64876 18.6474 7.36736 18.9283 6.92484 18.9283ZM10.0826 18.9283C9.64945 18.9283 9.34851 18.6536 9.34851 18.2435V8.0186C9.34851 7.60849 9.64945 7.33064 10.0826 7.33064C10.5127 7.33064 10.807 7.60849 10.807 8.0186V18.2435C10.807 18.6536 10.5127 18.9283 10.0826 18.9283ZM13.2307 18.9283C12.7881 18.9283 12.5067 18.6474 12.5165 18.231L12.8064 8.02171C12.8192 7.60493 13.1135 7.33064 13.533 7.33064C13.9693 7.33064 14.2542 7.61159 14.2445 8.02481L13.9479 18.2403C13.9351 18.6571 13.6443 18.9283 13.2307 18.9283Z" fill="#BBBBBB"/>
</svg>
